HIERARCHY
ROOT Hips
{
  OFFSET 0 0 0
  CHANNELS 6 Xposition Yposition Zposition Zrotation Xrotation Yrotation
  JOINT Spine
  {
    OFFSET 0 10.1816 0.131521
    CHANNELS 3 Zrotation Xrotation Yrotation
    JOINT Spine1
    {
      OFFSET 0 10.0835 -1.0008
      CHANNELS 3 Zrotation Xrotation Yrotation
      JOINT Spine2
      {
        OFFSET 0 9.10001 -1.37342
        CHANNELS 3 Zrotation Xrotation Yrotation
        JOINT Neck
        {
          OFFSET 0 16.6717 -2.51617
          CHANNELS 3 Zrotation Xrotation Yrotation
          JOINT Head
          {
            OFFSET 0 9.61788 1.68501
            CHANNELS 3 Zrotation Xrotation Yrotation
            End Site
            {
              OFFSET 0 0 0
            }
          }
        }
        JOINT LeftShoulder
        {
          OFFSET 4.57045 10.946 -2.62799
          CHANNELS 3 Zrotation Xrotation Yrotation
          JOINT LeftArm
          {
            OFFSET 10.5924 -0.524583 -2.23212
            CHANNELS 3 Zrotation Xrotation Yrotation
            JOINT LeftForeArm
            {
              OFFSET 27.8415 -8.94286e-05 3.74589e-05
              CHANNELS 3 Zrotation Xrotation Yrotation
              JOINT LeftHand
              {
                OFFSET 28.3288 -1.74407e-05 3.78045e-05
                CHANNELS 3 Zrotation Xrotation Yrotation
                End Site
                {
                  OFFSET 0 0 0
                }
              }
            }
          }
        }
        JOINT RightShoulder
        {
          OFFSET -4.56997 10.9462 -2.62802
          CHANNELS 3 Zrotation Xrotation Yrotation
          JOINT RightArm
          {
            OFFSET -10.5928 -0.524798 -2.2321
            CHANNELS 3 Zrotation Xrotation Yrotation
            JOINT RightForeArm
            {
              OFFSET -27.8415 -3.30792e-05 1.16763e-05
              CHANNELS 3 Zrotation Xrotation Yrotation
              JOINT RightHand
              {
                OFFSET -28.3288 0 5.5816e-05
                CHANNELS 3 Zrotation Xrotation Yrotation
                End Site
                {
                  OFFSET 0 0 0
                }
              }
            }
          }
        }
      }
    }
  }
  JOINT LeftUpLeg
  {
    OFFSET 8.20778 -6.75171 -1.59956
    CHANNELS 3 Zrotation Xrotation Yrotation
    JOINT LeftLeg
    {
      OFFSET 0 -44.3705 0.284643
      CHANNELS 3 Zrotation Xrotation Yrotation
      JOINT LeftFoot
      {
        OFFSET 0 -44.4279 -2.98219
        CHANNELS 3 Zrotation Xrotation Yrotation
        JOINT LeftToeBase
        {
          OFFSET 0 -8.72867 10.7106
          CHANNELS 3 Zrotation Xrotation Yrotation
          End Site
          {
            OFFSET 0 0 0
          }
        }
      }
    }
  }
  JOINT RightUpLeg
  {
    OFFSET -8.2078 -6.75166 -1.59956
    CHANNELS 3 Zrotation Xrotation Yrotation
    JOINT RightLeg
    {
      OFFSET 0 -44.3705 0.286156
      CHANNELS 3 Zrotation Xrotation Yrotation
      JOINT RightFoot
      {
        OFFSET 0 -44.4277 -2.98379
        CHANNELS 3 Zrotation Xrotation Yrotation
        JOINT RightToeBase
        {
          OFFSET 0 -8.72867 10.7106
          CHANNELS 3 Zrotation Xrotation Yrotation
          End Site
          {
            OFFSET 0 0 0
          }
        }
      }
    }
  }
}
MOTION
Frames:	5
Frame Time:	0.0333333
6.46226 89.7925 46.9346 -0.009418333333333334 -0.004320333333333333 0.08040733333333334 -0.000001 0.000001 0.000003 -0.000001 -0.000002 0.000002 0.000001 -0.000002 0.000001 0.000000 0.000001 0.000002 12.989311 18.743082 -0.034163 37.768098 2.394578 -7.533968 -69.229896 -40.069120 20.488008 -76.693763 -43.857983 8.827933 -0.000000 0.000004 -0.000000 -33.409648 3.911228 -11.645960 52.121952 1.303855 -14.298332 106.379445 -46.637047 -50.051401 -0.000002 0.000002 0.000002 8.622440 -9.396033 0.591158 2.175189 37.003226 -0.215347 0.000000 -0.000003 -0.000005 0.000001 0.000000 -0.000003 -3.845694 -101.081759 0.022295 18.488246 92.083490 -1.800011 -0.000002 -0.000002 -0.000003 0.000002 -0.000001 0.000003 
7.32906 89.4527 45.6273 -0.009401 -0.004285333333333333 0.08034733333333334 0.000002 -0.000002 -0.000004 -0.000000 -0.000002 -0.000002 0.000003 -0.000001 0.000000 0.000002 0.000001 -0.000004 12.729900 18.970179 -0.034063 37.616714 2.354242 -7.211340 -69.170282 -39.976971 20.401377 -76.569918 -44.468100 9.122686 0.000003 -0.000002 -0.000000 -33.479415 3.866945 -11.421952 51.895115 1.207321 -14.299354 107.099784 -46.087050 -50.191683 0.000002 -0.000001 -0.000001 8.197977 -10.424862 0.554070 2.398938 37.353799 -0.237506 -0.000000 0.000002 -0.000002 0.000002 -0.000002 -0.000002 -3.505391 -100.346277 0.050103 18.212570 91.899690 -1.774106 0.000002 0.000000 0.000002 -0.000001 0.000001 -0.000001 
8.11098 88.8352 44.2655 -0.010270333333333334 -0.0038116666666666663 0.08360033333333333 -0.000000 -0.000001 -0.000003 -0.000001 -0.000001 -0.000006 -0.000000 0.000000 -0.000003 0.000000 0.000001 -0.000001 17.263563 22.685826 -0.041407 34.541114 2.065726 -7.311901 -70.488413 -44.526437 23.266155 -69.905982 -43.186596 3.108378 0.000005 0.000001 -0.000001 -32.376545 3.491007 -8.012707 55.916884 2.320664 -13.907174 97.780380 -44.028448 -26.350825 0.000005 0.000001 0.000001 18.615887 -2.691350 1.367210 -6.557572 44.450916 0.648714 0.000003 0.000005 -0.000001 -0.000001 -0.000002 -0.000003 -15.185056 -96.975401 -0.832078 22.175480 104.773387 -2.142203 0.000001 0.000005 0.000001 0.000000 0.000000 0.000004 
8.58268 88.0628 42.8454 -0.007594666666666667 -0.005192666666666666 0.08936100000000001 0.000000 0.000000 -0.000002 -0.000001 -0.000000 -0.000001 0.000001 0.000001 -0.000003 -0.000000 0.000000 -0.000000 19.637721 20.776447 -0.042009 31.091988 2.069318 -9.344633 -73.544239 -37.499873 21.777951 -71.217139 -29.659574 -2.186610 0.000001 -0.000005 -0.000001 -29.667528 3.827920 -7.803062 55.618179 -0.011468 -13.095534 98.819484 -40.105693 -20.314287 -0.000000 0.000002 0.000002 10.689665 2.035847 0.801830 -3.515288 43.599966 0.348401 0.000001 0.000002 0.000003 -0.000001 -0.000001 -0.000004 -9.303542 -57.005794 -0.432519 24.234163 73.145049 -2.329543 0.000001 0.000000 0.000001 0.000000 0.000001 0.000001 
8.56962 87.3124 41.1668 -0.009396333333333333 -0.004377666666666668 0.09623666666666665 -0.000001 -0.000001 0.000001 0.000002 -0.000001 0.000001 0.000002 -0.000000 0.000000 0.000001 -0.000001 0.000002 21.526979 12.797261 -0.036638 33.335766 5.095069 -3.393381 -63.613411 -22.122706 12.086124 -100.134446 -41.346950 21.692196 0.000001 -0.000003 0.000001 -28.861815 5.534922 -9.122198 67.757847 7.167180 -11.244505 96.120685 -46.025503 -25.269567 -0.000000 0.000002 0.000001 25.955124 1.524819 1.909559 -2.384364 42.955084 0.236460 0.000001 -0.000005 -0.000002 0.000001 -0.000004 0.000001 -21.529245 -34.679633 -1.426815 16.981061 57.423005 -1.657973 0.000002 -0.000002 0.000000 0.000003 -0.000001 0.000005 
